<svg xmlns="http://www.w3.org/2000/svg" width="174" height="100" version="1.1">
  <rect x="0" y="0" width="174" height="100" style="fill:white"/>
  <rect x="0" y="0" width="2" height="100" style="fill:black"/>
  <rect x="4" y="0" width="6" height="100" style="fill:black"/>
  <rect x="16" y="0" width="2" height="100" style="fill:black"/>
  <rect x="24" y="0" width="2" height="100" style="fill:black"/>
  <rect x="28" y="0" width="2" height="100" style="fill:black"/>
  <rect x="32" y="0" width="2" height="100" style="fill:black"/>
  <rect x="36" y="0" width="2" height="100" style="fill:black"/>
  <rect x="44" y="0" width="6" height="100" style="fill:black"/>
  <rect x="52" y="0" width="2" height="100" style="fill:black"/>
  <rect x="56" y="0" width="2" height="100" style="fill:black"/>
  <rect x="60" y="0" width="2" height="100" style="fill:black"/>
  <rect x="68" y="0" width="6" height="100" style="fill:black"/>
  <rect x="76" y="0" width="2" height="100" style="fill:black"/>
  <rect x="80" y="0" width="2" height="100" style="fill:black"/>
  <rect x="84" y="0" width="2" height="100" style="fill:black"/>
  <rect x="92" y="0" width="6" height="100" style="fill:black"/>
  <rect x="100" y="0" width="2" height="100" style="fill:black"/>
  <rect x="104" y="0" width="2" height="100" style="fill:black"/>
  <rect x="108" y="0" width="2" height="100" style="fill:black"/>
  <rect x="116" y="0" width="6" height="100" style="fill:black"/>
  <rect x="124" y="0" width="2" height="100" style="fill:black"/>
  <rect x="128" y="0" width="2" height="100" style="fill:black"/>
  <rect x="132" y="0" width="6" height="100" style="fill:black"/>
  <rect x="144" y="0" width="2" height="100" style="fill:black"/>
  <rect x="148" y="0" width="2" height="100" style="fill:black"/>
  <rect x="152" y="0" width="6" height="100" style="fill:black"/>
  <rect x="164" y="0" width="2" height="100" style="fill:black"/>
  <rect x="172" y="0" width="2" height="100" style="fill:black"/>
</svg>
